ply
format ascii 1.0
element vertex 100
property float x
property float y
property float z
property uchar red
property uchar green
property uchar blue
end_header
-0,50 -0,50 2,00 100 200 100
-0,40 -0,50 2,00 100 200 100
-0,30 -0,50 2,00 100 200 100
-0,20 -0,50 2,00 100 200 100
-0,10 -0,50 2,00 100 200 100
0,00 -0,50 2,00 100 200 100
0,10 -0,50 2,00 100 200 100
0,20 -0,50 2,00 100 200 100
0,30 -0,50 2,00 100 200 100
0,40 -0,50 2,00 100 200 100
-0,50 -0,40 2,00 100 200 100
-0,40 -0,40 2,00 100 200 100
-0,30 -0,40 2,00 100 200 100
-0,20 -0,40 2,00 100 200 100
-0,10 -0,40 2,00 100 200 100
0,00 -0,40 2,00 100 200 100
0,10 -0,40 2,00 100 200 100
0,20 -0,40 2,00 100 200 100
0,30 -0,40 2,00 100 200 100
0,40 -0,40 2,00 100 200 100
-0,50 -0,30 2,00 100 200 100
-0,40 -0,30 2,00 100 200 100
-0,30 -0,30 2,00 100 200 100
-0,20 -0,30 2,00 100 200 100
-0,10 -0,30 2,00 100 200 100
0,00 -0,30 2,00 100 200 100
0,10 -0,30 2,00 100 200 100
0,20 -0,30 2,00 100 200 100
0,30 -0,30 2,00 100 200 100
0,40 -0,30 2,00 100 200 100
-0,50 -0,20 2,00 100 200 100
-0,40 -0,20 2,00 100 200 100
-0,30 -0,20 2,00 100 200 100
-0,20 -0,20 2,00 100 200 100
-0,10 -0,20 2,00 100 200 100
0,00 -0,20 2,00 100 200 100
0,10 -0,20 2,00 100 200 100
0,20 -0,20 2,00 100 200 100
0,30 -0,20 2,00 100 200 100
0,40 -0,20 2,00 100 200 100
-0,50 -0,10 2,00 100 200 100
-0,40 -0,10 2,00 100 200 100
-0,30 -0,10 2,00 100 200 100
-0,20 -0,10 2,00 100 200 100
-0,10 -0,10 2,00 100 200 100
0,00 -0,10 2,00 100 200 100
0,10 -0,10 2,00 100 200 100
0,20 -0,10 2,00 100 200 100
0,30 -0,10 2,00 100 200 100
0,40 -0,10 2,00 100 200 100
-0,50 0,00 2,00 100 200 100
-0,40 0,00 2,00 100 200 100
-0,30 0,00 2,00 100 200 100
-0,20 0,00 2,00 100 200 100
-0,10 0,00 2,00 100 200 100
0,00 0,00 2,00 100 200 100
0,10 0,00 2,00 100 200 100
0,20 0,00 2,00 100 200 100
0,30 0,00 2,00 100 200 100
0,40 0,00 2,00 100 200 100
-0,50 0,10 2,00 100 200 100
-0,40 0,10 2,00 100 200 100
-0,30 0,10 2,00 100 200 100
-0,20 0,10 2,00 100 200 100
-0,10 0,10 2,00 100 200 100
0,00 0,10 2,00 100 200 100
0,10 0,10 2,00 100 200 100
0,20 0,10 2,00 100 200 100
0,30 0,10 2,00 100 200 100
0,40 0,10 2,00 100 200 100
-0,50 0,20 2,00 100 200 100
-0,40 0,20 2,00 100 200 100
-0,30 0,20 2,00 100 200 100
-0,20 0,20 2,00 100 200 100
-0,10 0,20 2,00 100 200 100
0,00 0,20 2,00 100 200 100
0,10 0,20 2,00 100 200 100
0,20 0,20 2,00 100 200 100
0,30 0,20 2,00 100 200 100
0,40 0,20 2,00 100 200 100
-0,50 0,30 2,00 100 200 100
-0,40 0,30 2,00 100 200 100
-0,30 0,30 2,00 100 200 100
-0,20 0,30 2,00 100 200 100
-0,10 0,30 2,00 100 200 100
0,00 0,30 2,00 100 200 100
0,10 0,30 2,00 100 200 100
0,20 0,30 2,00 100 200 100
0,30 0,30 2,00 100 200 100
0,40 0,30 2,00 100 200 100
-0,50 0,40 2,00 100 200 100
-0,40 0,40 2,00 100 200 100
-0,30 0,40 2,00 100 200 100
-0,20 0,40 2,00 100 200 100
-0,10 0,40 2,00 100 200 100
0,00 0,40 2,00 100 200 100
0,10 0,40 2,00 100 200 100
0,20 0,40 2,00 100 200 100
0,30 0,40 2,00 100 200 100
0,40 0,40 2,00 100 200 100
